<?xml version="1.0" standalone="no"?>
<!DOCTYPE svg PUBLIC "-//W3C//DTD SVG 20010904//EN"
 "http://www.w3.org/TR/2001/REC-SVG-20010904/DTD/svg10.dtd">
<svg version="1.0" xmlns="http://www.w3.org/2000/svg"
 width="3110.000000pt" height="3110.000000pt" viewBox="0 0 3110.000000 3110.000000"
 preserveAspectRatio="xMidYMid meet">
<metadata>
Created by potrace 1.11, written by Peter Selinger 2001-2013
</metadata>
<g transform="translate(0.000000,3110.000000) scale(0.100000,-0.100000)"
fill="#000000" stroke="none">
<path d="M985 30830 c-326 -74 -571 -287 -680 -590 -58 -163 -54 309 -52
-6460 1 -3429 6 -6248 10 -6265 45 -171 89 -270 168 -376 143 -193 380 -336
604 -365 33 -4 2861 -7 6285 -7 l6225 0 99 27 c361 98 622 387 679 751 10 63
13 1364 11 6295 -1 5808 -2 6219 -18 6283 -18 73 -53 169 -82 227 -54 108
-165 240 -259 308 -27 20 -52 39 -55 42 -22 25 -229 114 -295 126 -11 2 -42 8
-70 13 -32 7 -2249 10 -6270 10 -5976 -1 -6223 -1 -6300 -19z"/>
<path d="M16762 29638 l3 -1213 5825 0 5825 0 5 -5830 5 -5830 1210 0 1210 0
0 7043 1 7042 -7043 0 -7043 0 2 -1212z"/>
<path d="M985 14320 c-283 -65 -500 -229 -633 -479 -31 -58 -81 -209 -90 -269
-4 -26 -7 -2857 -7 -6292 l0 -6245 23 -85 c71 -264 238 -470 487 -602 58 -31
207 -77 280 -86 28 -3 2851 -6 6275 -6 l6225 1 96 25 c336 90 592 352 670 686
l23 97 0 6205 c0 3413 -3 6232 -7 6265 -22 201 -128 409 -280 552 -128 120
-259 188 -462 240 -16 4 -2840 9 -6275 10 -6031 1 -6248 1 -6325 -17z"/>
<path d="M17589 14336 c-2 -2 -24 -6 -49 -9 -25 -3 -52 -8 -60 -10 -8 -2 -28
-7 -45 -11 -90 -23 -202 -77 -293 -144 -200 -146 -328 -354 -371 -603 -8 -49
-10 -1713 -8 -6300 l2 -6234 23 -78 c105 -373 403 -635 777 -685 28 -3 2842
-6 6255 -6 5072 -1 6217 2 6270 13 246 49 450 182 596 387 31 44 89 160 113
227 49 136 47 -171 45 6442 -1 3416 -4 6221 -7 6235 -30 149 -74 260 -148 369
-123 185 -311 319 -534 383 l-80 23 -6241 3 c-3432 1 -6242 0 -6245 -2z"/>
</g>
</svg>
